<svg width="374" height="225" viewBox="0 0 374 225" fill="none" xmlns="http://www.w3.org/2000/svg">
<g clip-path="url(#clip0_5_417)">
<rect width="374" height="225" rx="24" fill="#F8EBE9"/>
<circle opacity="0.2" cx="319" cy="34" r="135" stroke="#5B8BE8" stroke-width="10"/>
<circle opacity="0.2" cx="27.5" cy="-0.5" r="69.5" stroke="#F8AB8A" stroke-width="10"/>
<rect x="24" y="32.1" width="18.9" height="18.9" rx="4" fill="white" fill-opacity="0.7"/>
<rect x="32.1" y="24" width="19.8" height="19.8" rx="4" fill="white"/>
<path d="M36.1 82.26V79.88H33.76V82.16C29.34 82.3 25.56 84.28 25.56 87.8C25.56 91.84 30.14 92.78 32.52 93.08L33.76 93.24V97C31.9 96.82 30.5 96.14 30.06 94.64L24.56 94.66C25.04 98.7 28.62 100.2 33.76 100.4V102.98H36.1V100.4C41 100.22 44.1 98.66 44.1 95.02C44.1 91.1 39.7 90.24 38.06 89.96L36.1 89.66V85.52C37.52 85.84 38.04 86.74 38.24 88.1H43.56C43.46 84.44 39.94 82.68 36.12 82.26H36.1ZM36.12 97V93.54C37.42 93.76 38.92 94.26 38.92 95.26C38.92 96.26 37.98 96.82 36.14 97H36.12ZM33.8 85.42C33.8 85.4 33.8 89.3 33.8 89.3C33.8 89.28 30.78 88.64 30.78 87.38C30.78 86.18 32.26 85.6 33.8 85.42ZM46.4919 95.34C47.3319 99.02 50.4719 100.44 54.7919 100.44C61.1119 100.44 65.8519 97.12 65.8519 90.6C65.8519 85.28 62.1919 82.14 55.3919 82.14C49.0319 82.16 46.0719 85.18 46.0719 88.22C46.0919 91.7 49.3719 94.14 54.2319 94.14C56.3719 94.14 58.9519 93.64 60.2719 92.68C60.0319 95.58 57.9319 97.42 54.9919 97.42C53.6119 97.44 52.2919 96.76 52.0319 95.34H46.4919ZM60.1519 88.26C60.1519 90.16 58.1919 91.12 56.0319 91.12C53.4919 91.1 51.6719 90.12 51.6719 88.3C51.6719 86.68 53.1119 85.38 55.8119 85.38C58.8719 85.38 60.1519 86.7 60.1519 88.26ZM74.6659 96.24C75.2259 95.34 77.9459 94.28 78.5059 94.1L82.0259 92.98C84.8659 92.06 87.2259 91.28 87.2259 87.94C87.2459 84.3 84.4259 82.14 78.1659 82.14C72.0459 82.16 68.9059 84.72 68.9059 88.78H73.9259C73.9259 86.56 75.4459 85.16 77.9459 85.16C80.3259 85.18 81.8459 86.14 81.8459 87.72C81.8459 89.58 79.8259 90.24 78.2859 90.8L74.4259 92.2C70.3659 93.66 68.4059 96.02 68.1859 100H87.5859V96.24H74.6659ZM106.82 90.7C108.6 89.52 108.96 88.54 108.96 87.2C108.98 83.76 104.9 82.16 99.5405 82.16C94.0205 82.16 90.5205 83.8 90.1005 87.14H95.2205C96.2005 85.28 97.7805 85.18 99.3405 85.18C101.96 85.18 103.54 85.88 103.54 87.22C103.54 88.92 101.72 89.24 99.5405 89.24H96.0805V92.74H99.7005C100.54 92.74 103.88 92.6 103.88 94.62C103.9 96.76 101.48 97.46 99.2605 97.46C97.2005 97.46 95.4005 97.14 94.8205 95.06L89.9005 95.04C89.9005 98.8 93.1405 100.44 98.9805 100.44C105.78 100.44 109.38 98.52 109.38 94.86C109.4 92.64 108.44 91.66 106.84 90.7H106.82ZM111.955 96.22V100H116.475V96.22H111.955ZM125.115 96.24C125.675 95.34 128.395 94.28 128.955 94.1L132.475 92.98C135.315 92.06 137.675 91.28 137.675 87.94C137.695 84.3 134.875 82.14 128.615 82.14C122.495 82.16 119.355 84.72 119.355 88.78H124.375C124.375 86.56 125.895 85.16 128.395 85.16C130.775 85.18 132.295 86.14 132.295 87.72C132.295 89.58 130.275 90.24 128.735 90.8L124.875 92.2C120.815 93.66 118.855 96.02 118.635 100H138.035V96.24H125.115ZM149.41 82.58C148.61 84.42 147.47 85.32 145.49 85.86V88.78C146.83 88.7 147.41 88.36 148.19 88V100H152.95V82.58H149.41Z" fill="#997266"/>
<path d="M24.826 162.198V164.228H32.33V167H35.55V164.228H38.028V161.694H35.55V154.806H31.308L24.826 162.198ZM28.732 161.694L32.33 157.606V161.694H28.732ZM41.9718 154.806L40.1518 162.03H44.6038C45.4578 161.176 46.3538 160.896 47.2218 160.896C48.2578 160.896 50.0498 161.358 50.0498 163.038C50.0498 164.396 48.9858 165.124 46.5498 165.124C44.7018 165.124 43.8618 164.382 43.6378 163.332H39.7878C39.9698 166.272 43.3438 167.308 46.4658 167.308C49.6578 167.308 53.7598 166.846 53.7598 162.926C53.7598 159.496 50.0918 158.67 48.0198 158.67C46.7318 158.67 45.4578 159.006 43.8478 159.566L44.3938 157.508H53.1718V154.806H41.9718ZM67.0417 160.476C68.2317 159.776 68.7217 158.964 68.7217 157.928C68.7217 156.024 67.0417 154.498 62.0157 154.498C58.0257 154.512 55.8277 155.856 55.8277 158.068C55.8417 159.146 56.4297 159.804 57.4937 160.518C56.1357 161.19 55.4497 162.044 55.4497 163.514C55.4497 165.964 58.2777 167.308 62.1137 167.308C66.8177 167.308 69.1417 165.67 69.1417 163.542C69.1557 162.114 68.5957 161.162 67.0417 160.476ZM59.6357 157.858C59.6357 156.99 60.8397 156.626 62.0717 156.626C64.1157 156.626 64.8717 157.186 64.8717 157.998C64.8717 158.642 64.3257 159.356 62.2677 159.356C60.3217 159.356 59.6357 158.698 59.6357 157.844V157.858ZM59.2437 163.332C59.2437 162.114 60.3637 161.61 62.1697 161.61C64.0597 161.61 65.3057 162.338 65.3057 163.388C65.3057 164.396 64.3957 165.194 62.6037 165.194C59.9717 165.194 59.2437 164.144 59.2437 163.332ZM70.9435 163.738C71.5315 166.314 73.7295 167.308 76.7535 167.308C81.1775 167.308 84.4955 164.984 84.4955 160.42C84.4955 156.696 81.9335 154.498 77.1735 154.498C72.7215 154.512 70.6495 156.626 70.6495 158.754C70.6635 161.19 72.9595 162.898 76.3615 162.898C77.8595 162.898 79.6655 162.548 80.5895 161.876C80.4215 163.906 78.9515 165.194 76.8935 165.194C75.9275 165.208 75.0035 164.732 74.8215 163.738H70.9435ZM80.5055 158.782C80.5055 160.112 79.1335 160.784 77.6215 160.784C75.8435 160.77 74.5695 160.084 74.5695 158.81C74.5695 157.676 75.5775 156.766 77.4675 156.766C79.6095 156.766 80.5055 157.69 80.5055 158.782ZM104.831 160.476C106.021 159.776 106.511 158.964 106.511 157.928C106.511 156.024 104.831 154.498 99.8048 154.498C95.8148 154.512 93.6168 155.856 93.6168 158.068C93.6308 159.146 94.2188 159.804 95.2828 160.518C93.9248 161.19 93.2388 162.044 93.2388 163.514C93.2388 165.964 96.0667 167.308 99.9028 167.308C104.607 167.308 106.931 165.67 106.931 163.542C106.945 162.114 106.385 161.162 104.831 160.476ZM97.4248 157.858C97.4248 156.99 98.6288 156.626 99.8607 156.626C101.905 156.626 102.661 157.186 102.661 157.998C102.661 158.642 102.115 159.356 100.057 159.356C98.1108 159.356 97.4248 158.698 97.4248 157.844V157.858ZM97.0328 163.332C97.0328 162.114 98.1528 161.61 99.9588 161.61C101.849 161.61 103.095 162.338 103.095 163.388C103.095 164.396 102.185 165.194 100.393 165.194C97.7608 165.194 97.0328 164.144 97.0328 163.332ZM120.297 160.49C121.543 159.664 121.795 158.978 121.795 158.04C121.809 155.632 118.953 154.512 115.201 154.512C111.337 154.512 108.887 155.66 108.593 157.998H112.177C112.863 156.696 113.969 156.626 115.061 156.626C116.895 156.626 118.001 157.116 118.001 158.054C118.001 159.244 116.727 159.468 115.201 159.468H112.779V161.918H115.313C115.901 161.918 118.239 161.82 118.239 163.234C118.253 164.732 116.559 165.222 115.005 165.222C113.563 165.222 112.303 164.998 111.897 163.542L108.453 163.528C108.453 166.16 110.721 167.308 114.809 167.308C119.569 167.308 122.089 165.964 122.089 163.402C122.103 161.848 121.431 161.162 120.311 160.49H120.297ZM123.974 162.198V164.228H131.478V167H134.698V164.228H137.176V161.694H134.698V154.806H130.456L123.974 162.198ZM127.88 161.694L131.478 157.606V161.694H127.88ZM141.12 154.806L139.3 162.03H143.752C144.606 161.176 145.502 160.896 146.37 160.896C147.406 160.896 149.198 161.358 149.198 163.038C149.198 164.396 148.134 165.124 145.698 165.124C143.85 165.124 143.01 164.382 142.786 163.332H138.936C139.118 166.272 142.492 167.308 145.614 167.308C148.806 167.308 152.908 166.846 152.908 162.926C152.908 159.496 149.24 158.67 147.168 158.67C145.88 158.67 144.606 159.006 142.996 159.566L143.542 157.508H152.32V154.806H141.12ZM163.57 154.806L161.75 162.03H166.202C167.056 161.176 167.952 160.896 168.82 160.896C169.856 160.896 171.648 161.358 171.648 163.038C171.648 164.396 170.584 165.124 168.148 165.124C166.3 165.124 165.46 164.382 165.236 163.332H161.386C161.568 166.272 164.942 167.308 168.064 167.308C171.256 167.308 175.358 166.846 175.358 162.926C175.358 159.496 171.69 158.67 169.618 158.67C168.329 158.67 167.056 159.006 165.446 159.566L165.992 157.508H174.77V154.806H163.57ZM188.765 160.49C190.011 159.664 190.263 158.978 190.263 158.04C190.277 155.632 187.421 154.512 183.669 154.512C179.805 154.512 177.355 155.66 177.061 157.998H180.645C181.331 156.696 182.437 156.626 183.529 156.626C185.363 156.626 186.469 157.116 186.469 158.054C186.469 159.244 185.195 159.468 183.669 159.468H181.247V161.918H183.781C184.369 161.918 186.707 161.82 186.707 163.234C186.721 164.732 185.027 165.222 183.473 165.222C182.031 165.222 180.771 164.998 180.365 163.542L176.921 163.528C176.921 166.16 179.189 167.308 183.277 167.308C188.037 167.308 190.557 165.964 190.557 163.402C190.571 161.848 189.899 161.162 188.779 160.49H188.765ZM194.249 154.806L192.429 162.03H196.881C197.735 161.176 198.631 160.896 199.499 160.896C200.535 160.896 202.327 161.358 202.327 163.038C202.327 164.396 201.263 165.124 198.827 165.124C196.979 165.124 196.139 164.382 195.915 163.332H192.065C192.247 166.272 195.621 167.308 198.743 167.308C201.935 167.308 206.037 166.846 206.037 162.926C206.037 159.496 202.369 158.67 200.297 158.67C199.009 158.67 197.735 159.006 196.125 159.566L196.671 157.508H205.449V154.806H194.249ZM221.237 158.068C220.649 155.478 218.437 154.498 215.427 154.498C211.003 154.512 207.685 156.836 207.685 161.4C207.685 165.11 210.247 167.308 215.007 167.308C219.445 167.308 221.517 165.18 221.517 163.066C221.517 160.602 219.207 158.894 215.819 158.894C214.321 158.908 212.515 159.272 211.591 159.944C211.745 157.9 213.215 156.612 215.273 156.612C216.253 156.612 217.177 157.088 217.359 158.082L221.237 158.068ZM211.675 163.024C211.675 161.708 213.047 161.036 214.559 161.036C216.337 161.036 217.611 161.722 217.611 162.996C217.611 164.144 216.603 165.054 214.713 165.054C212.557 165.054 211.675 164.13 211.675 163.038V163.024ZM230.33 163.738C230.918 166.314 233.116 167.308 236.14 167.308C240.564 167.308 243.882 164.984 243.882 160.42C243.882 156.696 241.32 154.498 236.56 154.498C232.108 154.512 230.036 156.626 230.036 158.754C230.05 161.19 232.346 162.898 235.748 162.898C237.246 162.898 239.052 162.548 239.976 161.876C239.808 163.906 238.338 165.194 236.28 165.194C235.314 165.208 234.39 164.732 234.208 163.738H230.33ZM239.892 158.782C239.892 160.112 238.52 160.784 237.008 160.784C235.23 160.77 233.956 160.084 233.956 158.81C233.956 157.676 234.964 156.766 236.854 156.766C238.996 156.766 239.892 157.69 239.892 158.782ZM259.124 161.064C259.124 157.508 256.66 154.82 252.278 154.82C247.896 154.806 245.474 157.592 245.474 161.022C245.474 164.746 247.826 167.308 252.208 167.308C256.604 167.308 259.124 164.578 259.124 161.064ZM255.386 161.05C255.386 163.304 254.238 165.04 252.236 165.04C250.234 165.04 249.156 163.416 249.156 161.022C249.156 158.81 250.276 157.032 252.278 157.032C254.28 157.032 255.372 158.768 255.372 161.05H255.386ZM262.718 154.806L260.898 162.03H265.35C266.204 161.176 267.1 160.896 267.968 160.896C269.004 160.896 270.796 161.358 270.796 163.038C270.796 164.396 269.732 165.124 267.296 165.124C265.448 165.124 264.608 164.382 264.384 163.332H260.534C260.716 166.272 264.09 167.308 267.212 167.308C270.404 167.308 274.506 166.846 274.506 162.926C274.506 159.496 270.838 158.67 268.766 158.67C267.478 158.67 266.204 159.006 264.594 159.566L265.14 157.508H273.918V154.806H262.718ZM287.914 160.49C289.16 159.664 289.412 158.978 289.412 158.04C289.426 155.632 286.57 154.512 282.818 154.512C278.954 154.512 276.504 155.66 276.21 157.998H279.794C280.48 156.696 281.586 156.626 282.678 156.626C284.512 156.626 285.618 157.116 285.618 158.054C285.618 159.244 284.344 159.468 282.818 159.468H280.396V161.918H282.93C283.518 161.918 285.856 161.82 285.856 163.234C285.87 164.732 284.176 165.222 282.622 165.222C281.18 165.222 279.92 164.998 279.514 163.542L276.07 163.528C276.07 166.16 278.338 167.308 282.426 167.308C287.186 167.308 289.706 165.964 289.706 163.402C289.72 161.848 289.048 161.162 287.928 160.49H287.914Z" fill="#997266"/>
<path d="M27.7017 197V187.452L28.3177 187.928H25.4337V186.78H29.0457V197H27.7017ZM35.9326 197.252C35.1673 197.252 34.5139 197.121 33.9726 196.86C33.4406 196.589 33.0066 196.225 32.6706 195.768C32.3439 195.311 32.1059 194.783 31.9566 194.186C31.8073 193.579 31.7326 192.94 31.7326 192.268V191.512C31.7326 190.569 31.8773 189.72 32.1666 188.964C32.4653 188.208 32.9226 187.611 33.5386 187.172C34.1639 186.724 34.9619 186.5 35.9326 186.5C36.9033 186.5 37.6966 186.724 38.3126 187.172C38.9286 187.611 39.3813 188.208 39.6706 188.964C39.9693 189.72 40.1186 190.569 40.1186 191.512V192.268C40.1186 192.94 40.0439 193.579 39.8946 194.186C39.7453 194.783 39.5026 195.311 39.1666 195.768C38.8399 196.225 38.4106 196.589 37.8786 196.86C37.3466 197.121 36.6979 197.252 35.9326 197.252ZM35.9326 196.02C36.9033 196.02 37.6126 195.693 38.0606 195.04C38.5179 194.377 38.7466 193.332 38.7466 191.904C38.7466 190.411 38.5133 189.342 38.0466 188.698C37.5893 188.054 36.8846 187.732 35.9326 187.732C34.9713 187.732 34.2573 188.054 33.7906 188.698C33.3333 189.342 33.1046 190.401 33.1046 191.876C33.1046 193.313 33.3333 194.363 33.7906 195.026C34.2479 195.689 34.9619 196.02 35.9326 196.02ZM41.4789 197.84L44.3349 186.08H45.5949L42.7389 197.84H41.4789ZM47.0054 197V195.32C47.0054 194.909 47.0614 194.559 47.1734 194.27C47.2947 193.981 47.5001 193.719 47.7894 193.486C48.0787 193.243 48.4707 193.01 48.9654 192.786L50.8834 191.904C51.3501 191.689 51.7187 191.414 51.9894 191.078C52.2601 190.733 52.3954 190.289 52.3954 189.748C52.3954 189.095 52.2134 188.586 51.8494 188.222C51.4854 187.858 50.9721 187.676 50.3094 187.676C49.6561 187.676 49.1427 187.858 48.7694 188.222C48.3961 188.586 48.2094 189.095 48.2094 189.748H46.8934C46.8934 189.16 47.0147 188.619 47.2574 188.124C47.5094 187.629 47.8874 187.237 48.3914 186.948C48.8954 186.649 49.5347 186.5 50.3094 186.5C51.0841 186.5 51.7187 186.649 52.2134 186.948C52.7174 187.237 53.0907 187.62 53.3334 188.096C53.5854 188.572 53.7114 189.09 53.7114 189.65V189.846C53.7114 190.583 53.4967 191.204 53.0674 191.708C52.6474 192.212 52.0781 192.627 51.3594 192.954L49.4414 193.836C49.0121 194.032 48.7227 194.228 48.5734 194.424C48.4241 194.62 48.3494 194.881 48.3494 195.208V196.496L47.9854 195.852H53.8374V197H47.0054ZM59.8037 197.252C59.0384 197.252 58.385 197.121 57.8437 196.86C57.3117 196.589 56.8777 196.225 56.5417 195.768C56.215 195.311 55.977 194.783 55.8277 194.186C55.6784 193.579 55.6037 192.94 55.6037 192.268V191.512C55.6037 190.569 55.7484 189.72 56.0377 188.964C56.3364 188.208 56.7937 187.611 57.4097 187.172C58.035 186.724 58.833 186.5 59.8037 186.5C60.7744 186.5 61.5677 186.724 62.1837 187.172C62.7997 187.611 63.2524 188.208 63.5417 188.964C63.8404 189.72 63.9897 190.569 63.9897 191.512V192.268C63.9897 192.94 63.915 193.579 63.7657 194.186C63.6164 194.783 63.3737 195.311 63.0377 195.768C62.711 196.225 62.2817 196.589 61.7497 196.86C61.2177 197.121 60.569 197.252 59.8037 197.252ZM59.8037 196.02C60.7744 196.02 61.4837 195.693 61.9317 195.04C62.389 194.377 62.6177 193.332 62.6177 191.904C62.6177 190.411 62.3844 189.342 61.9177 188.698C61.4604 188.054 60.7557 187.732 59.8037 187.732C58.8424 187.732 58.1284 188.054 57.6617 188.698C57.2044 189.342 56.9757 190.401 56.9757 191.876C56.9757 193.313 57.2044 194.363 57.6617 195.026C58.119 195.689 58.833 196.02 59.8037 196.02Z" fill="#997266"/>
<path d="M96.8059 191.75L94.6639 190.238V188.894L96.8059 187.382L97.4359 188.474L95.6019 189.272V189.86L97.4359 190.658L96.8059 191.75ZM94.6359 186.094L94.3979 188.712L93.2219 189.384L90.8419 188.278L91.4719 187.2L93.0819 188.376L93.5999 188.082L93.3759 186.108L94.6359 186.094ZM90.8419 190.854L93.2219 189.748L94.3979 190.42L94.6359 193.038L93.3759 193.024L93.5999 191.05L93.0819 190.756L91.4719 191.932L90.8419 190.854ZM104.749 191.75L102.607 190.238V188.894L104.749 187.382L105.379 188.474L103.545 189.272V189.86L105.379 190.658L104.749 191.75ZM102.579 186.094L102.341 188.712L101.165 189.384L98.7853 188.278L99.4153 187.2L101.025 188.376L101.543 188.082L101.319 186.108L102.579 186.094ZM98.7853 190.854L101.165 189.748L102.341 190.42L102.579 193.038L101.319 193.024L101.543 191.05L101.025 190.756L99.4153 191.932L98.7853 190.854ZM112.693 191.75L110.551 190.238V188.894L112.693 187.382L113.323 188.474L111.489 189.272V189.86L113.323 190.658L112.693 191.75ZM110.523 186.094L110.285 188.712L109.109 189.384L106.729 188.278L107.359 187.2L108.969 188.376L109.487 188.082L109.263 186.108L110.523 186.094ZM106.729 190.854L109.109 189.748L110.285 190.42L110.523 193.038L109.263 193.024L109.487 191.05L108.969 190.756L107.359 191.932L106.729 190.854Z" fill="#997266"/>
<g filter="url(#filter0_b_5_417)">
<rect y="120" width="374" height="105" fill="white" fill-opacity="0.2"/>
</g>
</g>
<defs>
<filter id="filter0_b_5_417" x="-20" y="100" width="414" height="145" filterUnits="userSpaceOnUse" color-interpolation-filters="sRGB">
<feFlood flood-opacity="0" result="BackgroundImageFix"/>
<feGaussianBlur in="BackgroundImageFix" stdDeviation="10"/>
<feComposite in2="SourceAlpha" operator="in" result="effect1_backgroundBlur_5_417"/>
<feBlend mode="normal" in="SourceGraphic" in2="effect1_backgroundBlur_5_417" result="shape"/>
</filter>
<clipPath id="clip0_5_417">
<rect width="374" height="225" rx="24" fill="white"/>
</clipPath>
</defs>
</svg>
